<?xml version="1.0" standalone="no"?>
<!DOCTYPE svg PUBLIC "-//W3C//DTD SVG 20010904//EN"
 "http://www.w3.org/TR/2001/REC-SVG-20010904/DTD/svg10.dtd">
<svg version="1.0" xmlns="http://www.w3.org/2000/svg"
 width="2040.000000pt" height="2040.000000pt" viewBox="0 0 2040.000000 2040.000000"
 preserveAspectRatio="xMidYMid meet">
<metadata>
Created by potrace 1.14, written by Peter Selinger 2001-2017
</metadata>
<g transform="translate(0.000000,2040.000000) scale(0.100000,-0.100000)"
fill="#000000" stroke="none">
<path d="M9055 20024 c-121 -19 -140 -22 -275 -55 -209 -52 -445 -138 -655
-240 -33 -16 -66 -29 -72 -29 -6 0 -13 -3 -15 -7 -1 -5 -70 -42 -153 -82 -82
-41 -153 -79 -156 -84 -3 -5 -10 -9 -15 -8 -11 0 -155 -78 -242 -131 -34 -21
-66 -38 -71 -38 -5 0 -11 -3 -13 -7 -1 -5 -23 -21 -48 -38 -24 -16 -52 -37
-61 -45 -22 -19 -27 -22 -125 -97 -146 -111 -255 -250 -240 -306 3 -12 22 -40
43 -63 21 -23 54 -60 73 -84 19 -24 40 -48 45 -54 6 -6 38 -45 70 -86 33 -41
62 -77 65 -80 4 -3 19 -23 35 -45 17 -22 32 -42 35 -45 7 -6 154 -201 190
-250 251 -354 367 -624 365 -852 -1 -89 2 -96 34 -78 21 11 114 26 216 35 39
4 84 8 100 10 40 5 350 17 505 20 69 2 215 6 325 10 186 6 466 6 1460 2 338
-2 537 4 650 18 17 2 55 7 85 10 30 4 63 9 75 11 11 3 40 7 65 10 25 2 56 7
70 9 14 3 41 8 60 10 19 3 44 7 55 10 11 2 43 7 70 10 28 4 58 9 67 11 21 6
39 9 128 23 96 15 126 20 220 36 84 14 281 14 365 0 102 -17 227 -46 259 -59
20 -8 37 -12 40 -8 2 4 0 31 -4 61 -12 96 5 296 32 371 3 8 14 42 23 75 10 33
21 65 24 70 4 6 15 35 26 65 10 30 38 97 62 148 23 52 43 96 43 98 0 3 5 10
10 17 6 7 30 44 53 82 53 89 161 243 249 357 54 69 64 89 54 97 -8 7 -30 40
-51 75 -23 40 -72 96 -137 157 -55 52 -130 123 -167 159 -37 36 -80 75 -97 88
-40 31 -246 173 -281 193 -15 9 -54 33 -85 52 -32 20 -58 33 -58 31 0 -3 -12
3 -27 13 -16 11 -57 32 -93 47 -36 15 -74 31 -85 36 -157 67 -319 95 -565 95
-174 0 -310 -13 -725 -66 -88 -11 -176 -22 -195 -24 -19 -2 -56 -7 -82 -11
-44 -6 -56 -2 -160 49 -171 84 -593 223 -824 271 -70 15 -97 19 -229 35 -99
12 -246 10 -340 -5z"/>
<path d="M14738 19395 c-2 -1 -52 -5 -113 -9 -60 -4 -119 -9 -130 -11 -11 -2
-38 -7 -60 -10 -78 -10 -111 -16 -176 -31 -36 -8 -74 -17 -85 -19 -10 -2 -19
-4 -19 -5 0 -1 -7 -3 -15 -5 -42 -10 -165 -61 -245 -101 -96 -48 -327 -184
-360 -212 -27 -23 -375 -487 -375 -500 0 -6 -3 -12 -7 -14 -24 -10 -150 -211
-203 -323 -141 -300 -196 -572 -153 -761 18 -81 91 -232 171 -353 71 -107 258
-296 442 -447 19 -16 37 -31 40 -34 3 -3 21 -17 40 -30 19 -13 40 -29 45 -36
18 -21 248 -185 380 -271 72 -47 142 -94 157 -104 15 -10 30 -19 34 -19 3 0
18 -8 32 -19 15 -10 88 -52 162 -93 237 -132 238 -133 245 -186 6 -43 -69 -52
-112 -13 -10 9 -31 23 -48 31 -16 8 -41 22 -55 31 -14 9 -50 30 -80 46 -205
113 -304 175 -555 347 -36 25 -261 193 -290 217 -359 296 -517 473 -637 716
-23 47 -47 87 -53 88 -5 2 -46 14 -90 28 -99 32 -304 67 -403 71 -41 1 -113
-4 -160 -11 -125 -19 -333 -52 -360 -58 -37 -7 -265 -45 -298 -49 -69 -10
-130 -18 -144 -21 -13 -3 -87 -11 -185 -21 -68 -7 -241 -15 -420 -20 -104 -2
-273 -7 -375 -10 -285 -9 -706 -9 -905 1 -256 12 -841 7 -1080 -9 -22 -2 -89
-6 -150 -10 -60 -5 -112 -9 -115 -11 -3 -2 -26 -6 -52 -9 -26 -4 -67 -10 -91
-15 -25 -4 -52 -4 -60 0 -11 7 -18 1 -27 -21 -30 -73 -100 -159 -250 -310
-121 -121 -182 -174 -312 -272 -51 -38 -101 -76 -111 -84 -9 -8 -20 -14 -23
-14 -3 0 -31 -16 -62 -37 -183 -117 -366 -202 -852 -395 -292 -117 -384 -155
-466 -193 -129 -61 -188 -78 -232 -68 -18 4 -21 8 -10 14 8 6 9 9 1 9 -6 0
-10 8 -8 18 2 9 4 21 4 26 1 5 3 7 6 4 3 -3 52 19 108 48 56 30 107 54 114 54
6 0 14 4 17 9 3 4 27 16 53 26 45 17 95 37 168 70 17 7 53 21 80 30 28 10 68
26 90 35 22 10 69 29 105 43 70 27 273 109 330 134 70 30 326 157 375 186 203
121 378 258 550 431 130 130 164 170 213 251 36 59 37 62 39 170 2 107 -19
231 -47 277 -5 10 -10 22 -10 27 0 15 -82 180 -129 261 -150 254 -230 349
-727 856 -71 73 -215 187 -301 239 -181 111 -218 131 -353 202 -223 115 -348
158 -525 180 -69 8 -299 10 -330 2 -16 -4 -49 -10 -72 -13 -72 -9 -248 -58
-358 -100 -38 -15 -71 -27 -73 -26 -4 1 -197 -94 -202 -100 -11 -12 -90 -60
-100 -60 -5 0 -10 -3 -10 -7 0 -5 -16 -19 -35 -32 -105 -71 -255 -230 -337
-356 -24 -37 -82 -132 -234 -385 -35 -58 -68 -111 -74 -117 -6 -7 -7 -13 -3
-13 4 0 3 -4 -3 -8 -10 -6 -192 -360 -195 -380 -2 -10 -13 -37 -52 -127 -18
-44 -48 -120 -66 -170 -18 -49 -35 -97 -38 -105 -4 -8 -7 -18 -8 -22 -2 -5 -4
-10 -5 -13 -1 -3 -3 -8 -4 -12 -1 -5 -12 -42 -25 -83 -13 -41 -25 -85 -27 -97
-2 -12 -9 -35 -15 -50 -6 -16 -10 -29 -10 -30 1 -2 1 -4 0 -5 0 -2 -2 -10 -4
-18 -30 -136 -63 -308 -69 -350 -4 -31 -14 -52 -31 -67 -15 -13 -22 -23 -18
-23 4 0 3 -4 -2 -8 -6 -4 -26 -27 -45 -52 -19 -25 -37 -47 -41 -50 -15 -13
-111 -164 -148 -234 -66 -123 -162 -377 -192 -510 -14 -58 -14 -58 -144 -164
-71 -59 -141 -116 -155 -128 -44 -37 -255 -218 -266 -229 -545 -498 -667 -632
-1010 -1110 -108 -150 -175 -253 -268 -408 -130 -220 -166 -405 -103 -537 56
-117 161 -185 320 -204 93 -12 262 -13 372 -2 33 3 92 8 130 11 39 3 77 8 85
10 8 2 44 7 80 10 36 3 72 8 80 10 8 2 39 7 69 10 58 6 141 39 141 55 0 6 5
10 11 10 6 0 29 13 52 29 46 31 314 189 387 228 25 13 65 35 90 49 67 39 359
187 405 206 136 57 608 215 780 261 11 3 61 17 110 32 98 30 386 110 450 127
22 5 47 12 55 15 8 3 22 7 30 9 8 2 122 30 253 64 131 33 248 62 260 64 87 18
338 68 362 72 17 3 53 9 80 15 68 13 83 15 135 24 25 4 52 9 60 10 8 1 35 6
60 10 25 4 52 9 60 10 14 2 63 10 130 20 14 3 43 7 65 9 40 5 96 13 146 22 15
2 47 6 70 9 24 3 78 10 119 15 110 16 130 18 185 25 28 3 84 10 125 15 75 9
120 14 240 25 36 3 83 8 105 10 281 30 1913 23 2225 -10 224 -23 1072 -24
1375 -1 183 14 224 17 255 21 19 3 67 7 105 10 39 3 104 10 145 15 41 5 98 12
125 15 28 3 61 8 75 10 14 3 50 7 80 10 48 5 202 27 280 40 29 4 89 13 140 19
19 3 49 7 65 10 17 2 50 8 75 11 25 4 52 9 60 10 8 2 44 6 80 10 36 4 74 9 85
12 28 6 93 14 142 16 24 1 43 5 43 8 0 3 20 5 45 4 25 0 45 3 45 7 0 4 7 5 15
2 9 -4 15 0 15 7 0 9 3 10 8 4 9 -13 42 -18 42 -7 0 5 7 9 15 9 8 0 15 -7 15
-16 0 -14 2 -14 10 -1 10 15 90 25 90 10 0 -4 -14 -6 -30 -5 -17 1 -28 0 -25
-4 4 -3 100 -6 213 -7 186 -1 403 -10 450 -18 9 -2 46 -7 82 -10 36 -4 90 -11
120 -16 30 -5 69 -11 85 -14 304 -46 651 -137 860 -226 11 -5 97 -39 190 -75
158 -63 333 -134 380 -155 11 -5 117 -50 235 -101 118 -50 231 -98 250 -106
66 -28 75 -32 185 -74 61 -23 112 -41 114 -40 2 2 7 -1 10 -6 18 -25 306 -134
617 -233 457 -146 1205 -341 1469 -384 17 -3 71 -12 120 -22 123 -23 545 -23
745 0 19 3 62 7 95 11 164 18 328 67 450 137 61 34 147 126 179 191 35 72 42
171 19 250 -16 57 -90 209 -125 260 -106 154 -329 383 -523 536 -44 35 -82 67
-85 70 -27 37 -664 468 -880 596 -63 38 -169 109 -236 158 l-121 89 7 44 c8
50 5 208 -4 274 -36 245 -165 493 -333 641 -25 22 -32 38 -38 85 -4 33 -9 70
-12 84 -2 14 -6 39 -8 55 -2 17 -4 30 -5 30 -2 0 -8 33 -15 80 -3 22 -7 51
-10 65 -3 14 -8 39 -10 55 -3 17 -7 39 -9 50 -7 35 -38 179 -41 196 -2 8 -11
46 -20 83 -9 37 -18 72 -19 79 -6 29 -18 74 -26 97 -5 14 -25 81 -45 150 -79
265 -173 522 -239 649 -7 14 -25 49 -39 76 -49 96 -72 139 -80 149 -4 6 -39
60 -78 120 -39 59 -79 116 -88 126 -9 9 -32 36 -51 60 -19 24 -58 67 -87 97
-28 29 -50 53 -47 53 2 0 -18 19 -43 43 -26 23 -64 58 -84 77 -71 67 -207 167
-294 216 -133 75 -331 154 -420 168 -16 2 -30 5 -30 6 0 1 -9 3 -20 5 -133 22
-139 23 -215 30 -63 7 -317 14 -322 10z m909 -2049 c10 -3 30 -7 45 -10 42 -7
96 -26 166 -57 35 -16 67 -29 72 -29 6 0 10 -4 10 -10 0 -5 5 -10 11 -10 6 0
16 -6 23 -12 14 -14 138 -106 165 -123 27 -17 171 -163 171 -174 0 -5 -10 -13
-22 -17 -13 -3 -42 -19 -66 -35 -24 -16 -45 -29 -48 -29 -7 0 -78 -74 -106
-110 -15 -19 -38 -58 -52 -86 l-25 -51 -128 -17 c-70 -10 -159 -24 -198 -31
-38 -8 -155 -30 -260 -50 -430 -82 -767 -160 -867 -200 -15 -6 -17 3 -13 97 8
196 61 351 184 533 47 70 168 201 226 245 117 88 296 160 440 176 28 3 52 7
53 9 6 5 198 -3 219 -9z m-11198 -271 c59 -6 168 -29 226 -49 44 -14 189 -79
195 -87 3 -3 19 -13 36 -22 50 -26 184 -139 258 -218 73 -78 153 -195 199
-291 38 -80 38 -81 -35 -73 -183 22 -524 26 -773 10 -117 -7 -396 -33 -440
-41 -16 -3 -80 -14 -140 -24 -61 -10 -118 -22 -127 -25 -13 -5 -23 7 -44 52
-15 32 -43 78 -62 103 -79 100 -119 122 -229 128 -46 3 -83 6 -83 8 0 6 25 59
30 64 3 3 23 32 45 65 44 65 128 154 190 200 22 17 42 33 45 37 3 3 39 24 80
46 116 62 268 107 404 119 39 3 72 6 73 7 3 2 80 -2 152 -9z m11521 -825 c0
-18 27 -97 52 -150 64 -134 232 -289 316 -290 24 0 24 0 -7 -39 -47 -59 -134
-144 -183 -176 -23 -17 -45 -33 -48 -36 -10 -13 -167 -87 -226 -107 -143 -49
-259 -66 -449 -66 -154 0 -191 3 -255 21 -200 57 -343 165 -479 363 -48 70
-103 168 -106 190 0 3 -4 11 -8 18 -5 7 -3 14 5 17 44 15 1045 216 1253 251
17 3 46 9 65 13 57 14 70 13 70 -9z m-10526 -262 c-2 -40 -8 -94 -13 -120 -10
-46 -68 -198 -80 -208 -13 -11 -51 -70 -51 -79 0 -5 -3 -11 -7 -13 -5 -1 -26
-25 -48 -53 -57 -71 -164 -173 -237 -226 -109 -79 -360 -190 -462 -205 -17 -2
-58 -8 -91 -13 -62 -10 -296 -8 -313 3 -5 3 -25 8 -43 11 -28 5 -98 21 -169
39 -43 11 -146 55 -232 98 -68 34 -113 65 -153 106 -50 50 -115 132 -115 145
0 2 27 7 60 10 175 19 318 129 355 274 9 33 17 89 19 124 2 51 6 64 22 70 18
8 333 43 479 54 39 3 86 8 105 10 46 5 262 14 465 20 214 6 449 17 454 21 2 2
16 4 31 4 l27 0 -3 -72z"/>
<path d="M12140 14504 c-36 -7 -81 -15 -100 -18 -33 -5 -63 -10 -120 -21 -14
-3 -38 -7 -55 -9 -79 -13 -162 -26 -185 -31 -50 -9 -156 -25 -205 -30 -27 -3
-61 -8 -75 -10 -35 -6 -253 -33 -320 -40 -30 -3 -71 -8 -90 -10 -71 -9 -127
-14 -215 -21 -49 -3 -108 -8 -130 -10 -147 -13 -390 -19 -790 -19 -405 0 -531
4 -740 19 -198 16 -495 21 -1125 21 -724 0 -948 -6 -1165 -29 -33 -4 -82 -9
-110 -12 -81 -8 -401 -48 -475 -59 -50 -8 -238 -35 -285 -41 -22 -3 -96 -15
-165 -26 -69 -11 -141 -22 -160 -24 -19 -3 -42 -7 -50 -9 -8 -2 -28 -7 -45 -9
-102 -17 -212 -37 -225 -41 -8 -2 -26 -6 -40 -9 -26 -4 -90 -18 -306 -67 -268
-59 -682 -171 -1144 -309 -170 -50 -466 -146 -495 -160 -11 -5 -40 -16 -65
-24 -55 -18 -103 -38 -198 -82 -41 -19 -75 -34 -77 -34 -2 0 -31 -16 -64 -34
-34 -19 -61 -32 -61 -29 0 3 -8 -1 -17 -9 -10 -9 -52 -33 -93 -53 -41 -21 -76
-41 -78 -46 -2 -5 -8 -9 -13 -9 -5 0 -44 -20 -87 -44 -130 -73 -154 -87 -232
-129 -41 -22 -77 -42 -80 -44 -6 -6 36 -86 86 -164 36 -54 53 -70 101 -94 95
-46 183 -80 273 -104 47 -13 92 -26 100 -29 21 -7 41 -11 69 -14 13 -1 26 -8
28 -15 3 -7 9 -10 14 -7 5 3 8 0 7 -8 -2 -7 3 -12 11 -10 11 2 12 0 3 -11 -7
-8 -8 -17 -4 -22 4 -4 -4 -2 -18 5 -21 10 -23 10 -13 -1 17 -17 16 -26 -2 -26
-8 0 -12 5 -9 11 3 6 0 4 -8 -4 -7 -8 -24 -15 -38 -14 -88 4 -179 21 -272 51
l-108 35 -81 -57 c-103 -72 -121 -88 -239 -205 -82 -82 -122 -126 -241 -268
-10 -12 -19 -26 -19 -31 0 -5 -4 -11 -8 -13 -11 -4 -92 -124 -92 -137 0 -5 -3
-11 -7 -13 -33 -14 -190 -364 -232 -517 -11 -39 -22 -74 -24 -78 -3 -5 -14
-71 -26 -148 -58 -399 -47 -661 38 -913 99 -295 183 -358 338 -256 54 36 67
52 163 194 112 165 257 345 368 455 38 39 71 70 73 70 10 1 52 35 44 35 -6 0
-2 5 8 11 13 8 22 7 32 -1 10 -8 15 -8 21 1 4 8 3 9 -4 5 -7 -4 -12 -2 -12 4
0 7 7 10 15 6 8 -3 15 -1 15 3 0 5 -6 11 -12 14 -7 2 -10 8 -6 12 4 4 16 -8
27 -26 23 -38 26 -49 11 -49 -6 0 -9 3 -9 8 1 4 1 14 0 22 -1 13 -2 13 -11 0
-5 -9 -5 -19 0 -26 6 -6 6 -15 2 -19 -4 -5 0 -5 8 -1 9 5 8 2 -2 -7 -10 -8
-15 -17 -12 -20 3 -3 -4 -11 -16 -17 -12 -6 -20 -14 -17 -16 3 -3 -5 -15 -17
-28 -11 -13 -37 -42 -56 -65 -19 -23 -44 -52 -55 -64 -11 -12 -42 -49 -68 -82
-26 -33 -55 -68 -63 -78 -7 -9 -14 -22 -14 -27 0 -6 -4 -10 -9 -10 -5 0 -17
-13 -28 -29 -10 -16 -30 -46 -45 -67 -67 -96 -96 -557 -52 -834 5 -33 31 -156
39 -190 34 -135 105 -320 178 -465 42 -85 167 -283 198 -315 8 -8 32 -40 54
-70 42 -57 52 -70 130 -159 90 -103 172 -175 267 -236 l28 -17 -6 64 c-9 89
-10 360 -3 443 21 221 52 350 139 580 54 145 63 165 73 165 5 0 6 4 2 9 -3 5
-1 12 5 16 6 4 8 11 5 16 -4 5 -1 9 5 9 6 0 9 4 6 9 -8 12 21 34 33 26 7 -4 9
1 5 12 -4 12 0 10 14 -7 12 -14 24 -21 28 -17 4 4 2 7 -4 7 -7 0 -12 5 -12 11
0 5 5 7 12 3 7 -4 8 -3 4 5 -4 6 -12 9 -17 6 -5 -4 -9 -1 -9 4 0 15 30 14 31
-1 4 -33 -3 -83 -12 -86 -5 -2 -9 -8 -9 -13 0 -6 5 -7 12 -3 7 5 8 3 2 -7 -4
-8 -9 -18 -11 -24 -7 -35 -14 -59 -38 -135 -49 -161 -68 -224 -80 -275 -1 -5
-5 -17 -8 -25 -3 -8 -11 -46 -18 -85 -6 -38 -14 -79 -16 -90 -23 -112 -22
-530 3 -653 5 -26 12 -33 40 -38 43 -8 119 11 152 37 23 18 37 34 89 109 30
41 84 102 150 168 54 53 68 62 101 63 20 0 46 2 57 4 139 25 205 30 385 29
168 0 226 -4 320 -22 63 -12 129 -24 145 -27 75 -14 394 -91 525 -127 80 -22
154 -42 165 -45 32 -9 299 -88 440 -131 72 -22 206 -63 299 -91 93 -29 174
-54 180 -58 7 -4 8 -3 1 4 -5 6 -32 23 -60 38 -27 15 -94 53 -148 84 -53 31
-106 60 -117 66 -11 5 -20 13 -20 17 0 5 -5 8 -11 8 -6 0 -34 15 -62 34 -29
18 -92 59 -142 91 -108 69 -259 176 -263 187 -2 4 -10 8 -17 8 -7 0 -15 3 -17
8 -1 4 -28 27 -58 52 -30 25 -56 48 -58 53 -2 4 -7 7 -11 7 -19 0 -391 339
-391 357 0 2 -10 14 -22 27 -13 12 -41 44 -63 71 -22 26 -45 53 -50 59 -6 6
-56 70 -113 141 -56 72 -106 135 -111 141 -4 5 -13 20 -20 31 -6 12 -17 28
-23 35 -18 19 -58 76 -58 82 0 3 -16 30 -35 60 -19 30 -35 58 -35 61 0 4 -9
20 -21 36 -11 16 -18 29 -14 29 3 0 -1 10 -9 23 -56 86 -157 413 -182 587 -2
19 -7 46 -11 60 -9 40 -12 285 -3 324 5 24 4 37 -4 40 -6 2 -2 5 9 5 17 1 17
3 5 11 -11 7 -11 10 -2 10 7 0 11 4 7 9 -3 5 0 13 6 17 7 4 9 3 5 -4 -3 -6 -1
-14 5 -18 8 -4 9 -3 5 4 -5 8 3 11 26 8 29 -4 31 -3 14 10 -11 7 -23 11 -27 8
-5 -3 -17 -1 -26 5 -14 8 -10 10 19 7 21 -1 40 2 42 8 2 6 5 2 5 -9 1 -17 3
-17 11 -5 8 13 10 12 11 -5 1 -11 1 -23 0 -27 0 -5 4 -8 9 -8 6 0 8 11 6 24
-4 20 -1 23 12 19 10 -4 12 -8 4 -11 -8 -2 -9 -9 -3 -20 14 -28 37 -170 42
-262 2 -37 25 -198 29 -210 2 -3 2 -8 1 -12 0 -4 6 -36 15 -70 8 -35 19 -79
23 -98 5 -19 18 -62 30 -95 13 -33 27 -73 32 -90 25 -82 103 -228 194 -365 73
-110 243 -330 330 -429 133 -151 191 -209 285 -291 34 -30 68 -59 74 -65 6 -5
27 -22 48 -37 20 -15 43 -35 52 -43 27 -27 251 -199 286 -220 10 -5 48 -31 86
-56 38 -26 141 -90 229 -143 88 -53 167 -101 175 -106 8 -6 22 -13 30 -17 8
-4 38 -20 65 -36 60 -36 91 -53 170 -97 33 -18 80 -44 105 -58 25 -14 79 -43
120 -65 41 -22 80 -43 85 -47 32 -25 572 -289 630 -308 39 -13 79 -27 90 -32
101 -46 167 -66 313 -96 13 -3 89 -25 169 -50 160 -49 243 -73 288 -81 17 -3
38 -9 48 -14 9 -5 17 -8 17 -5 0 3 15 0 33 -5 26 -8 448 -104 497 -113 24 -5
94 -19 105 -21 30 -7 123 -26 145 -30 14 -3 59 -12 100 -20 91 -18 355 -65
390 -70 43 -5 114 -15 140 -20 26 -5 44 -7 190 -25 47 -6 101 -13 120 -15 136
-18 308 -25 620 -25 336 0 446 7 640 40 30 5 72 12 92 15 31 5 93 20 248 59 8
2 35 9 60 16 25 7 52 13 60 15 8 2 35 9 60 16 60 17 62 17 85 22 11 3 47 12
80 22 33 9 94 25 135 35 108 28 542 173 780 260 47 18 90 33 95 34 6 2 23 8
38 14 16 7 34 12 41 12 7 0 16 3 20 7 3 4 12 8 19 9 12 3 360 129 387 141 8 3
17 7 20 7 8 2 164 57 185 66 11 5 72 27 135 50 63 23 135 50 160 60 25 11 90
38 145 60 123 51 344 161 401 201 24 16 45 29 49 29 3 0 11 5 18 10 7 6 62 43
122 82 162 105 222 155 420 353 153 154 193 197 245 265 19 25 40 49 47 55 10
9 138 197 170 250 41 68 88 153 133 245 29 58 59 117 66 132 8 14 14 33 14 42
0 9 5 16 10 16 6 0 10 8 10 18 0 10 4 22 9 28 5 5 18 36 29 69 11 33 32 91 46
128 13 37 24 69 25 70 0 1 2 9 5 17 19 59 37 120 41 136 2 10 16 62 30 114 22
84 90 384 101 450 3 14 7 32 10 40 3 8 8 26 11 40 9 43 11 55 13 55 3 0 10 28
16 63 4 17 11 32 16 32 5 0 6 5 3 10 -3 6 -1 10 6 10 8 0 8 4 -1 15 -11 13
-10 14 2 10 8 -3 21 1 28 9 7 9 16 14 20 11 5 -3 11 -1 14 4 4 5 1 13 -5 17
-8 5 -9 3 -4 -7 7 -11 5 -11 -11 1 -10 8 -21 16 -23 17 -3 2 13 1 35 -3 21 -3
41 -8 43 -10 2 -2 11 2 20 9 14 10 14 10 3 -5 -11 -14 -10 -18 8 -28 11 -6 18
-16 14 -22 -4 -5 -8 -47 -10 -92 -6 -149 -31 -294 -106 -596 -41 -166 -125
-447 -155 -520 -3 -8 -7 -17 -8 -20 -3 -7 -14 -34 -63 -150 -132 -314 -329
-634 -530 -860 -63 -71 -292 -302 -360 -364 -24 -21 -42 -40 -40 -42 4 -4 400
78 583 121 61 14 140 32 178 40 133 29 424 104 522 135 55 18 122 38 148 46
l48 15 42 -33 c23 -18 44 -35 47 -38 3 -3 33 -28 68 -54 35 -27 74 -58 87 -70
60 -55 86 -76 94 -76 5 0 14 -7 21 -15 20 -24 27 -18 39 33 37 156 36 130 33
582 -2 225 -1 253 12 269 9 12 8 13 -3 6 -10 -5 -12 -4 -7 3 4 7 17 17 28 23
18 10 20 9 14 -7 -5 -15 -4 -16 5 -7 18 18 2 35 -22 22 -28 -14 -36 -4 -16 19
10 10 15 21 12 24 -3 2 2 5 10 5 8 0 12 -4 10 -8 -5 -7 25 -36 33 -31 3 1 7
-4 8 -13 1 -8 -1 -13 -5 -11 -4 3 -7 -4 -7 -15 0 -10 5 -19 11 -19 6 0 12 -11
13 -25 1 -14 2 -36 3 -50 1 -14 4 -25 8 -25 3 0 6 -19 7 -43 1 -23 5 -98 9
-167 10 -153 11 -351 2 -405 -3 -22 -17 -77 -30 -121 l-23 -82 26 8 c50 14
253 135 330 196 154 123 222 187 317 299 57 67 203 279 203 295 0 5 5 10 10
10 6 0 10 4 10 9 0 5 23 49 51 97 48 84 127 243 164 329 72 170 155 551 171
780 6 90 6 90 -23 114 -29 25 -203 184 -307 281 -126 117 -206 202 -199 212 3
6 1 8 -4 5 -6 -4 -18 2 -28 13 -10 11 -14 20 -9 20 5 0 2 5 -6 11 -13 9 -12
10 3 5 16 -5 25 8 10 17 -5 2 -2 2 5 1 7 -2 16 6 21 18 7 18 9 19 14 5 4 -10
3 -17 -2 -17 -5 0 -16 -11 -25 -24 -11 -18 -13 -27 -4 -32 6 -4 9 -3 5 2 -3 5
1 17 8 28 11 14 21 16 45 11 17 -4 34 -13 37 -21 3 -8 9 -11 14 -8 5 3 9 0 9
-6 0 -6 4 -9 9 -6 5 4 11 3 13 -1 1 -5 32 -30 68 -58 94 -72 92 -70 270 -235
57 -52 116 -109 133 -127 55 -60 228 -111 338 -99 123 12 206 110 234 276 31
187 25 480 -16 719 -25 152 -135 555 -179 656 -4 11 -25 65 -46 120 -92 239
-336 552 -547 703 -25 17 -49 32 -55 32 -5 0 -17 9 -27 20 -10 11 -21 17 -26
15 -4 -3 -10 -1 -14 4 -3 5 -18 16 -33 24 -15 8 -55 29 -89 48 l-63 33 -62
-33 c-127 -67 -271 -114 -380 -125 -27 -2 -48 0 -48 5 0 5 -3 8 -7 8 -23 -4
-33 3 -33 21 0 11 -4 20 -10 20 -5 0 -10 5 -10 10 0 7 6 7 18 1 14 -7 19 -6
19 4 0 8 -5 11 -11 8 -6 -3 -8 -3 -4 2 4 4 74 30 155 57 226 76 364 153 402
226 15 29 16 28 -34 35 -109 15 -713 158 -965 228 -41 11 -88 24 -105 29 -16
4 -106 31 -200 60 -93 28 -179 54 -190 57 -11 3 -83 27 -160 53 -77 26 -169
57 -205 69 -36 12 -74 26 -85 30 -11 5 -69 28 -130 52 -107 42 -180 77 -259
127 -22 13 -44 25 -50 26 -6 1 -24 7 -41 13 -16 6 -93 34 -170 63 -77 28 -149
55 -160 60 -11 5 -72 30 -135 55 -63 25 -124 50 -135 55 -44 20 -122 52 -209
86 -50 20 -104 41 -121 48 -16 7 -57 23 -90 36 -33 12 -69 26 -80 31 -24 10
-186 70 -200 73 -5 2 -21 8 -35 13 -81 33 -420 113 -584 138 -21 3 -48 7 -60
10 -24 5 -65 11 -146 20 -30 4 -66 9 -80 11 -106 17 -264 20 -820 15 -91 0
-181 0 -200 2 -19 1 -64 -3 -100 -9z m121 -238 c17 -4 32 -18 43 -40 41 -86 6
-179 -132 -356 -24 -30 -53 -68 -65 -83 -12 -16 -57 -66 -100 -112 -124 -132
-239 -181 -289 -123 -40 46 -34 83 26 183 17 28 34 55 38 60 4 6 45 62 90 127
81 113 179 231 227 272 13 12 31 28 40 37 21 21 72 48 86 44 5 -2 22 -6 36 -9z
m-3700 -168 c58 -33 137 -113 219 -218 19 -25 37 -47 40 -50 3 -3 17 -21 31
-40 15 -19 36 -46 48 -60 11 -14 24 -30 28 -35 5 -6 26 -33 49 -60 55 -67 66
-90 60 -125 -9 -62 -67 -87 -134 -59 -109 47 -303 236 -446 433 -28 39 -55 74
-61 78 -5 4 -7 8 -3 8 4 0 1 15 -6 33 -19 45 -2 94 42 118 30 15 38 16 72 4
20 -7 48 -19 61 -27z m-1008 -42 c66 -8 129 -23 212 -48 39 -12 72 -22 75 -23
82 -24 320 -157 376 -209 6 -6 22 -18 34 -26 41 -27 260 -252 260 -267 0 -2 6
-10 13 -18 44 -47 232 -302 283 -385 82 -133 212 -459 240 -599 7 -38 36 -158
41 -171 6 -16 8 -23 18 -80 3 -19 10 -48 15 -65 13 -44 21 -104 36 -280 3 -38
7 -72 10 -76 7 -12 -60 -77 -90 -89 -15 -5 -39 -10 -54 -10 -15 0 -40 -8 -57
-18 -28 -17 -137 -63 -160 -69 -5 -1 -37 -9 -70 -19 -69 -18 -88 -23 -130 -31
-16 -2 -35 -9 -41 -14 -6 -5 -13 -6 -17 -3 -3 3 -29 1 -59 -5 -96 -19 -296
-33 -488 -34 -128 0 -338 10 -370 18 -8 2 -37 6 -64 10 -27 3 -87 13 -135 22
-47 8 -95 17 -106 19 -11 1 -31 5 -45 8 -14 3 -41 9 -60 13 -19 4 -37 8 -40 8
-45 10 -90 16 -93 13 -2 -1 -10 2 -18 8 -8 6 -30 14 -49 18 -72 13 -293 90
-435 151 -22 10 -40 16 -40 15 0 -1 -22 11 -50 27 -27 16 -66 37 -85 46 -48
24 -276 171 -290 187 -3 3 -23 19 -45 36 -21 16 -47 36 -56 44 -8 8 -37 33
-64 55 -220 183 -339 379 -264 435 14 11 23 31 25 56 2 21 10 55 18 74 8 19
26 69 41 110 64 171 143 307 306 520 141 184 280 329 383 399 12 8 23 17 26
21 37 42 308 163 415 185 25 5 37 7 130 25 28 5 77 12 110 16 33 3 61 7 62 8
5 4 305 -3 346 -8z m6026 -25 c30 -6 73 -16 95 -23 23 -6 43 -12 46 -12 38 -7
297 -133 320 -156 3 -3 39 -30 80 -61 41 -31 85 -65 97 -75 11 -11 40 -35 64
-54 42 -34 56 -47 155 -141 49 -45 136 -137 184 -194 64 -75 216 -316 269
-427 13 -27 26 -48 30 -48 4 0 8 -6 8 -12 0 -7 13 -40 28 -73 52 -113 78 -188
78 -220 0 -8 5 -15 10 -15 6 0 8 -3 4 -6 -3 -3 5 -35 19 -70 51 -136 29 -187
-142 -329 -106 -87 -135 -109 -208 -157 -39 -26 -75 -51 -81 -56 -32 -26 -267
-148 -400 -207 -176 -79 -335 -131 -460 -150 -22 -3 -76 -12 -120 -20 -44 -8
-102 -17 -130 -21 -27 -3 -59 -8 -70 -10 -158 -30 -618 -24 -900 12 -74 10
-376 64 -435 78 -14 3 -37 8 -53 11 -83 15 -181 64 -292 145 -27 20 -78 47
-112 59 -131 48 -143 110 -70 391 21 83 38 162 53 250 3 14 7 33 10 42 3 10 7
30 10 45 3 16 11 49 20 74 8 25 16 54 19 65 14 69 122 340 182 459 97 190 345
479 533 619 30 23 57 44 58 49 2 4 8 7 14 7 6 0 34 15 62 33 43 28 180 99 196
102 3 0 37 13 75 27 71 27 144 49 180 54 11 1 20 3 20 4 0 3 40 9 100 15 33 4
61 8 63 10 8 8 343 -4 391 -14z m-7869 -1346 c0 -2 -10 -9 -22 -15 -22 -11
-22 -10 -4 4 21 17 26 19 26 11z m-3060 -1965 c0 -5 -2 -10 -4 -10 -3 0 -8 5
-11 10 -3 6 -1 10 4 10 6 0 11 -4 11 -10z m13640 0 c0 -5 -5 -10 -11 -10 -5 0
-7 5 -4 10 3 6 8 10 11 10 2 0 4 -4 4 -10z m-78 -52 c-7 -7 -12 -8 -12 -2 0
14 12 26 19 19 2 -3 -1 -11 -7 -17z"/>
<path d="M2900 12573 c0 -5 10 -18 23 -29 l22 -19 -20 25 c-11 14 -21 27 -22
29 -2 2 -3 0 -3 -6z"/>
<path d="M16270 10674 c0 -10 6 -14 15 -10 8 3 15 1 15 -4 0 -6 7 -10 16 -10
12 0 10 5 -9 20 -30 24 -37 25 -37 4z"/>
<path d="M16990 9015 c-11 -13 -10 -14 4 -9 9 3 16 10 16 15 0 13 -6 11 -20
-6z"/>
<path d="M14060 7385 c-19 -8 -120 -44 -225 -82 -104 -37 -192 -70 -195 -73
-3 -3 -13 -6 -22 -8 -9 -1 -65 -21 -125 -43 -59 -22 -112 -42 -118 -43 -5 -1
-23 -7 -40 -13 -78 -30 -232 -85 -245 -88 -13 -3 -128 -45 -170 -62 -8 -3 -19
-7 -25 -9 -12 -3 -183 -62 -205 -71 -8 -3 -24 -8 -34 -10 -11 -2 -25 -8 -33
-14 -7 -6 -13 -9 -13 -6 0 3 -15 0 -33 -8 -18 -7 -111 -39 -207 -70 -96 -31
-176 -58 -177 -59 -3 -2 31 -97 47 -131 5 -11 30 -69 56 -130 45 -106 125
-274 155 -325 23 -39 102 -154 115 -167 7 -7 21 -23 31 -35 25 -31 127 -118
188 -159 69 -47 118 -68 182 -78 112 -17 204 20 306 123 129 131 249 341 497
871 62 132 163 342 226 468 63 125 114 229 114 232 0 8 -12 5 -50 -10z"/>
<path d="M15317 6706 c4 -5 -1 -7 -10 -3 -9 3 -19 2 -21 -2 -3 -5 -18 -6 -32
-3 -17 3 -25 1 -21 -5 6 -10 -46 -28 -66 -24 -5 1 -6 -3 -3 -8 6 -9 -30 -25
-49 -21 -5 1 -7 -1 -3 -5 8 -9 -14 -35 -24 -28 -5 2 -8 -3 -8 -12 0 -9 -4 -14
-8 -11 -5 3 -16 -8 -26 -25 -9 -16 -22 -29 -28 -29 -5 0 -8 -6 -5 -13 3 -8 -3
-20 -13 -27 -11 -8 -17 -17 -15 -21 3 -4 -2 -12 -10 -19 -8 -7 -12 -16 -9 -21
3 -5 0 -9 -6 -9 -6 0 -8 -4 -5 -10 3 -5 1 -10 -5 -10 -6 0 -8 -5 -5 -10 3 -6
-1 -13 -9 -16 -9 -3 -13 -10 -10 -15 3 -5 1 -9 -5 -9 -6 0 -8 -7 -5 -15 4 -8
2 -15 -3 -15 -5 0 -10 -6 -10 -12 0 -7 -10 -35 -22 -61 -12 -26 -19 -53 -15
-59 4 -7 3 -8 -4 -4 -11 6 -17 -12 -13 -36 0 -5 -4 -8 -10 -8 -5 0 -8 -4 -4
-9 3 -5 1 -12 -5 -16 -6 -4 -8 -10 -5 -15 3 -5 -1 -15 -9 -23 -8 -8 -12 -17
-9 -21 3 -3 -6 -10 -21 -15 -14 -6 -26 -15 -26 -21 0 -5 -7 -10 -15 -10 -8 0
-15 -4 -15 -9 0 -8 -37 -24 -52 -22 -5 1 -8 -4 -8 -9 0 -6 -7 -10 -16 -10 -8
0 -12 -4 -9 -10 5 -9 -15 -15 -37 -11 -5 0 -8 -6 -8 -15 0 -8 -5 -12 -10 -9
-6 3 -13 -1 -16 -9 -3 -9 -10 -13 -15 -10 -5 3 -9 -2 -9 -11 0 -9 -4 -14 -8
-11 -5 3 -24 -9 -42 -27 -19 -18 -30 -26 -25 -18 5 10 4 12 -3 7 -7 -4 -12
-14 -12 -21 0 -9 -6 -12 -17 -8 -11 4 -14 3 -9 -5 6 -11 -5 -17 -26 -13 -5 0
-7 -2 -5 -7 3 -10 -40 -52 -47 -44 -3 3 -6 0 -6 -6 0 -6 -22 -33 -49 -60 -27
-27 -57 -61 -66 -76 -9 -14 -21 -23 -26 -20 -5 3 -6 -2 -3 -10 3 -9 1 -16 -5
-16 -6 0 -11 -9 -11 -21 0 -11 -4 -17 -10 -14 -8 5 -15 -31 -11 -57 0 -5 -3
-8 -9 -8 -11 0 -9 -28 3 -47 5 -8 3 -13 -4 -13 -8 0 -9 -3 0 -14 6 -7 12 -25
13 -40 1 -14 6 -26 10 -26 4 0 8 -6 8 -13 0 -7 9 -23 20 -35 11 -12 20 -27 20
-33 0 -7 3 -10 6 -6 3 3 20 -8 36 -24 17 -16 37 -29 44 -29 8 0 14 -4 14 -10
0 -5 9 -10 20 -10 11 0 20 -5 20 -10 0 -6 8 -10 18 -8 9 2 16 -2 15 -8 -1 -6
3 -11 10 -12 28 -2 46 -9 63 -22 16 -13 17 -13 9 0 -7 12 -6 13 7 3 8 -7 18
-10 21 -6 4 3 9 -1 12 -9 4 -9 15 -13 29 -11 13 3 27 0 30 -6 4 -6 23 -11 42
-11 19 0 34 -4 34 -10 0 -5 14 -8 30 -6 17 2 33 -1 36 -6 9 -15 6 -111 -4
-117 -10 -7 -9 -42 1 -58 4 -6 4 -14 -1 -17 -11 -6 -9 -107 2 -125 7 -11 6
-12 -5 -6 -11 7 -12 6 -2 -7 7 -8 14 -27 15 -42 1 -14 6 -26 10 -26 4 0 8 -7
8 -15 0 -8 6 -15 13 -15 9 0 9 -2 -1 -9 -11 -7 -10 -9 3 -15 9 -3 14 -10 10
-16 -3 -5 2 -17 12 -27 10 -10 24 -31 32 -46 8 -15 20 -27 28 -27 7 0 13 -7
13 -16 0 -8 4 -13 9 -9 6 3 24 -3 42 -14 18 -11 36 -18 41 -15 5 3 15 1 21 -5
17 -13 138 -11 156 3 11 8 13 8 8 -1 -7 -11 16 -6 81 19 13 4 28 6 33 3 5 -4
9 -1 9 6 0 7 3 9 7 6 3 -4 12 1 20 11 8 9 12 11 8 5 -3 -7 -1 -13 4 -13 6 0
11 5 11 10 0 6 8 14 18 17 9 4 23 13 30 20 7 7 23 13 35 13 18 0 19 2 7 10
-13 8 -12 10 3 10 10 0 15 5 12 10 -4 6 -3 10 2 9 19 -3 34 2 28 10 -3 5 4 12
15 16 11 3 20 11 20 16 0 6 5 7 10 4 6 -3 10 1 10 9 0 9 4 16 9 16 5 0 38 28
73 62 34 35 67 61 73 60 5 -2 7 -1 3 3 -6 6 13 34 54 76 9 9 19 27 23 38 3 12
11 19 16 16 5 -4 9 -1 9 5 0 6 5 8 10 5 6 -3 10 -2 10 3 0 5 16 9 35 9 19 0
35 -5 35 -10 0 -6 3 -8 6 -4 4 3 19 0 35 -9 16 -8 29 -12 29 -9 0 3 14 -1 30
-10 17 -9 30 -13 30 -9 0 3 11 -1 24 -10 16 -10 27 -12 31 -6 4 6 13 4 22 -6
9 -8 24 -13 34 -11 11 3 19 2 19 -2 0 -8 26 -12 90 -14 25 -1 47 -5 51 -9 6
-9 153 -13 168 -4 5 4 12 3 14 -1 3 -5 42 -6 86 -3 51 3 81 1 81 -5 0 -5 5 -3
10 5 5 8 27 15 51 17 23 1 46 6 52 12 5 5 16 7 23 4 9 -3 14 2 14 13 0 16 2
17 10 4 9 -14 14 -7 11 13 -1 5 3 6 8 3 12 -8 53 43 45 55 -3 5 0 8 8 7 8 -2
13 6 12 20 -1 12 2 22 7 22 5 0 6 42 4 93 -4 79 -7 105 -14 150 0 5 -4 6 -9 3
-4 -2 -7 11 -6 30 1 19 -2 34 -7 34 -5 0 -9 13 -9 29 0 17 -4 33 -10 36 -5 3
-10 15 -10 26 0 10 -4 19 -10 19 -5 0 -7 7 -4 15 4 8 1 15 -5 15 -6 0 -10 3
-9 8 1 4 -3 17 -10 28 -6 12 -8 24 -5 28 3 3 1 6 -5 6 -7 0 -12 7 -12 15 0 8
-6 15 -12 15 -9 0 -8 4 2 10 10 6 11 10 3 10 -7 0 -13 7 -13 16 0 9 -5 12 -12
8 -8 -5 -9 0 -6 14 4 13 1 22 -5 22 -7 1 -2 6 10 13 12 7 22 15 23 19 7 32 13
48 20 48 4 0 11 11 14 25 4 14 11 25 16 25 5 0 7 6 4 14 -3 8 -1 17 5 21 6 3
11 17 11 30 0 13 5 27 11 31 6 3 9 15 6 25 -3 10 -1 19 4 21 5 2 11 12 13 23
2 11 7 38 11 60 5 22 9 52 9 67 1 15 5 30 9 34 4 4 7 12 7 18 0 6 -5 4 -10 -4
-5 -8 -10 -10 -10 -4 0 6 3 14 7 18 9 8 13 144 6 163 -3 7 -10 10 -15 7 -6 -4
-7 0 -1 12 13 29 9 59 -7 56 -8 -2 -12 0 -8 4 4 4 3 13 -4 21 -6 7 -8 16 -5
19 3 3 -6 17 -20 30 -15 14 -22 28 -17 36 4 7 4 10 0 6 -4 -3 -31 5 -59 18
-47 22 -64 24 -172 23 -74 -1 -126 -5 -134 -13 -12 -9 -13 -8 -6 4 7 12 6 13
-6 3 -9 -7 -25 -11 -37 -8 -12 2 -22 -1 -22 -7 0 -5 -7 -8 -15 -5 -8 4 -17 2
-20 -3 -3 -5 -12 -7 -20 -3 -8 3 -15 1 -15 -5 0 -5 -13 -9 -30 -8 -16 1 -30
-1 -30 -4 0 -4 -6 -7 -12 -8 -7 -1 -33 -3 -58 -5 -30 -3 -44 -9 -42 -17 3 -11
0 -11 -12 0 -9 7 -16 8 -16 3 0 -5 -13 -8 -30 -7 -16 1 -27 -2 -24 -7 3 -5 -6
-9 -20 -9 -14 0 -26 5 -26 10 0 6 -7 10 -15 10 -8 0 -15 5 -15 10 0 6 -6 10
-13 10 -7 0 -19 9 -27 20 -8 11 -19 20 -24 20 -5 0 -17 10 -27 22 -11 11 -19
17 -19 12 0 -5 -11 4 -25 20 -14 16 -25 26 -25 21 0 -4 -6 -2 -13 4 -8 6 -17
8 -21 4 -4 -4 -4 0 -1 9 5 13 0 19 -19 24 -14 3 -23 10 -20 15 3 5 -1 9 -9 9
-8 0 -28 14 -45 30 -33 31 -49 39 -36 18 5 -9 3 -9 -9 1 -9 7 -14 17 -11 22 3
5 2 8 -3 7 -4 -1 -18 3 -29 10 -12 6 -24 8 -28 5 -3 -3 -6 -1 -6 6 0 7 -4 10
-9 7 -5 -4 -11 -1 -13 5 -2 5 -21 11 -43 12 -22 1 -43 6 -46 10 -9 12 -109 15
-102 3z"/>
<path d="M5477 6653 c-26 -2 -45 -7 -43 -11 2 -4 -8 -7 -22 -6 -15 1 -33 -3
-39 -9 -7 -5 -13 -7 -13 -4 0 3 -12 0 -27 -8 -15 -8 -31 -11 -36 -8 -6 3 -7 1
-3 -5 6 -10 -30 -28 -47 -24 -5 1 -6 -2 -2 -7 7 -12 -29 -33 -40 -23 -5 4 -5
1 -1 -5 6 -12 -4 -17 -26 -14 -4 0 -9 -7 -12 -17 -3 -9 -15 -23 -27 -30 -17
-11 -20 -11 -14 0 5 7 -1 4 -12 -7 -11 -11 -18 -24 -15 -29 2 -5 -1 -7 -9 -4
-7 2 -26 -8 -41 -24 -15 -15 -31 -28 -36 -28 -5 0 -17 -10 -26 -22 -9 -13 -14
-16 -11 -8 4 8 -6 2 -20 -15 -15 -16 -24 -23 -19 -15 4 8 -5 3 -20 -12 -25
-25 -66 -34 -66 -16 0 4 -5 8 -11 8 -5 0 -7 -6 -3 -12 5 -9 3 -9 -9 1 -9 7
-26 11 -36 8 -11 -3 -22 1 -25 8 -2 7 -17 12 -35 10 -17 -1 -34 1 -36 5 -3 5
-16 7 -30 5 -14 -1 -28 1 -30 6 -3 4 -14 6 -25 4 -11 -2 -20 0 -20 5 0 4 -13
7 -29 6 -17 -1 -28 1 -25 5 2 4 -3 10 -12 13 -10 4 -13 2 -8 -7 6 -9 4 -9 -7
-1 -8 5 -24 9 -36 8 -13 0 -23 2 -23 6 0 4 -50 9 -111 9 -62 1 -116 4 -120 7
-5 3 -9 0 -9 -6 0 -7 -7 -10 -15 -7 -8 4 -17 2 -20 -4 -4 -5 -10 -7 -15 -4 -5
3 -13 -3 -19 -12 -7 -13 -10 -14 -11 -4 0 10 -6 7 -19 -7 -10 -12 -21 -19 -25
-15 -3 3 -6 -1 -6 -11 0 -10 -5 -14 -11 -10 -7 4 -10 1 -7 -6 2 -8 -4 -22 -15
-33 -10 -10 -16 -25 -13 -32 2 -7 -1 -16 -9 -19 -9 -3 -12 -15 -9 -35 3 -20 1
-31 -7 -31 -8 0 -9 -3 0 -13 6 -8 7 -17 3 -21 -9 -9 -10 -156 0 -156 3 0 5
-22 4 -50 -1 -27 2 -50 6 -50 4 0 8 -13 8 -28 0 -15 5 -33 12 -40 9 -9 9 -12
-2 -12 -12 -1 -11 -3 2 -10 10 -6 14 -18 11 -30 -3 -11 0 -20 6 -20 6 0 11
-11 11 -25 0 -14 5 -25 11 -25 5 0 8 -4 5 -8 -3 -5 2 -21 10 -36 7 -16 14 -35
14 -43 0 -8 5 -11 10 -8 6 3 10 -1 10 -9 0 -9 5 -16 10 -16 6 0 9 -3 9 -7 -4
-22 2 -33 14 -27 6 4 9 4 5 -1 -4 -4 -3 -16 2 -26 8 -14 6 -21 -10 -29 -11 -6
-17 -16 -14 -25 4 -8 2 -15 -4 -15 -5 0 -12 -9 -15 -21 -3 -12 -10 -18 -15
-15 -5 3 -7 -6 -4 -19 2 -15 0 -25 -7 -25 -6 0 -11 -9 -11 -20 0 -11 -5 -20
-11 -20 -5 0 -8 -4 -5 -8 3 -5 -2 -21 -10 -36 -7 -16 -14 -36 -14 -45 0 -9 -6
-23 -12 -30 -10 -10 -10 -12 -1 -7 8 5 8 -2 -2 -20 -8 -15 -12 -31 -9 -36 3
-5 1 -14 -4 -21 -5 -7 -9 -24 -8 -39 1 -14 -1 -25 -5 -22 -4 2 -6 -21 -5 -52
1 -30 -2 -58 -6 -60 -5 -3 -5 -11 -1 -17 4 -7 9 -23 11 -37 1 -14 13 -34 25
-44 20 -18 20 -19 2 -13 -18 7 -19 6 -3 -6 10 -8 15 -17 11 -20 -3 -4 1 -7 10
-7 10 0 17 -4 17 -10 0 -5 6 -10 14 -10 8 0 18 -5 22 -12 5 -7 3 -8 -6 -3 -9
5 -11 4 -6 -4 4 -6 12 -9 17 -5 5 3 16 1 23 -5 7 -6 30 -12 52 -14 21 -1 45
-7 53 -11 10 -7 12 -5 6 5 -7 12 -6 12 8 1 12 -10 55 -13 169 -12 84 0 161 1
171 1 9 0 17 4 17 8 0 4 27 7 61 6 33 0 64 5 67 10 4 6 16 11 27 12 52 5 80
13 83 21 2 6 11 8 21 5 10 -2 24 1 32 9 13 12 29 17 74 21 11 1 23 6 27 12 11
15 98 14 98 -1 0 -7 9 -18 21 -24 12 -7 18 -18 15 -26 -5 -13 6 -19 27 -15 5
1 6 -3 3 -8 -4 -5 0 -16 8 -24 8 -8 12 -18 8 -21 -3 -4 1 -4 11 0 12 4 17 1
17 -10 0 -9 4 -16 9 -16 5 0 12 -8 16 -19 3 -10 21 -26 40 -36 18 -11 33 -24
32 -29 -1 -6 4 -10 11 -8 8 1 11 -2 8 -7 -3 -5 7 -17 22 -26 15 -10 31 -24 35
-32 5 -7 12 -11 18 -8 5 4 9 -2 9 -11 0 -10 3 -14 7 -11 3 4 19 -7 35 -23 15
-16 31 -31 36 -31 19 -4 52 -23 52 -31 0 -5 5 -6 10 -3 6 3 13 0 16 -8 3 -9
13 -13 25 -10 10 3 19 1 19 -5 0 -6 8 -9 18 -8 9 2 19 -1 22 -5 3 -5 21 -10
40 -11 19 -2 40 -9 46 -17 6 -8 13 -10 17 -5 3 6 32 7 66 4 32 -3 57 -2 55 2
-5 7 19 12 39 9 4 -1 15 6 24 14 8 9 22 14 29 11 8 -3 14 1 14 9 0 8 5 15 11
15 26 0 95 92 83 111 -4 7 -3 10 2 6 5 -3 19 12 31 34 12 22 16 36 10 32 -7
-4 -4 5 6 20 9 15 15 27 11 27 -4 0 -1 7 6 15 10 12 10 15 -1 15 -9 0 -10 3
-4 8 13 9 14 172 2 172 -5 0 -4 7 3 15 9 10 9 15 1 15 -7 0 -11 21 -11 55 0
48 3 55 20 56 21 2 38 5 43 9 3 3 39 10 65 12 12 1 22 6 22 11 0 5 9 7 20 4
14 -4 20 0 20 11 0 14 2 14 9 3 6 -10 10 -10 16 -1 4 6 13 9 21 6 8 -3 14 1
14 11 0 12 3 13 14 4 10 -9 16 -8 26 4 7 8 16 12 21 9 5 -3 12 1 15 10 3 8 12
12 20 9 8 -3 14 0 14 6 0 6 9 11 20 11 11 0 20 5 20 11 0 5 5 7 10 4 6 -3 10
-1 10 4 0 6 7 11 16 11 9 0 12 5 8 12 -5 8 -2 9 10 5 10 -4 15 -3 11 3 -3 5 6
17 20 26 13 9 22 20 19 25 -3 5 0 8 7 7 7 -2 13 3 14 10 0 7 6 16 13 21 8 5
13 11 13 15 -1 3 0 8 0 11 1 3 3 10 4 15 1 6 3 15 4 21 0 5 6 7 11 4 6 -3 10
-2 10 4 0 5 -6 12 -12 14 -9 4 -10 8 -2 14 16 12 -1 137 -17 127 -5 -3 -9 2
-9 12 0 9 -16 36 -35 59 -19 23 -31 46 -27 50 4 5 2 5 -4 2 -14 -8 -37 17 -26
28 4 5 1 5 -5 1 -8 -4 -13 -1 -13 8 0 9 -6 15 -12 13 -7 -1 -12 4 -10 12 2 8
-3 11 -12 8 -9 -4 -15 -3 -14 1 4 11 -35 52 -49 52 -7 0 -12 6 -10 13 1 6 -4
11 -10 10 -7 -2 -13 3 -13 10 -1 13 -77 64 -91 60 -5 -2 -8 2 -6 9 1 6 -10 18
-25 25 -16 8 -28 19 -28 24 0 6 -5 7 -10 4 -6 -3 -13 1 -16 9 -3 9 -10 13 -15
10 -5 -3 -9 2 -9 10 0 9 -3 15 -7 14 -14 -4 -53 13 -53 23 0 5 -9 9 -20 9 -11
0 -20 5 -20 11 0 5 -4 8 -9 5 -5 -3 -11 1 -15 9 -3 8 -10 15 -16 15 -15 0 -40
25 -40 39 0 6 -6 11 -12 11 -10 0 -9 3 1 9 10 7 11 9 1 13 -8 2 -15 12 -17 21
-1 9 -4 24 -6 32 -2 8 -9 21 -15 27 -7 7 -12 22 -12 35 0 13 -4 23 -8 23 -5 0
-9 6 -9 13 -1 18 -7 41 -13 47 -9 8 -41 84 -40 94 1 5 -4 12 -12 17 -7 5 -13
12 -14 16 -1 17 -28 63 -36 63 -4 0 -8 8 -8 18 0 9 -14 28 -30 41 -17 13 -30
30 -30 38 0 8 -4 12 -8 9 -5 -3 -15 4 -22 15 -8 10 -20 19 -28 19 -7 0 -10 5
-7 10 3 6 -1 10 -9 10 -9 0 -16 5 -16 11 0 5 -5 7 -10 4 -6 -4 -18 -1 -26 6
-15 13 -26 16 -69 24 -11 2 -22 4 -25 5 -3 1 -8 2 -12 1 -5 0 -8 4 -8 11 0 6
-7 3 -15 -8 -13 -16 -14 -16 -9 -1 3 9 5 16 3 15 -2 -1 -25 -3 -52 -5z"/>
<path d="M10015 6460 c-106 -9 -167 -26 -218 -62 -62 -44 -76 -68 -107 -189
-36 -140 -40 -159 -54 -248 -8 -56 -16 -85 -24 -83 -7 1 -12 -3 -12 -9 0 -5
-4 -8 -9 -4 -5 3 -12 1 -16 -5 -3 -5 -15 -10 -26 -10 -10 0 -19 -4 -19 -8 0
-4 -9 -8 -20 -9 -13 -1 -18 2 -14 10 4 7 3 8 -2 4 -5 -5 -9 -14 -9 -20 -1 -7
-6 -11 -13 -10 -7 2 -12 -2 -12 -7 0 -12 -22 -9 -32 5 -5 6 -8 3 -8 -6 0 -15
-32 -33 -52 -30 -5 1 -8 -3 -8 -9 0 -10 -65 -43 -86 -43 -10 0 -11 -4 -3 -13
8 -9 5 -11 -12 -7 -15 4 -20 3 -15 -5 4 -7 2 -12 -3 -12 -6 0 -11 6 -12 13 0
6 -5 1 -10 -12 -6 -15 -15 -21 -24 -17 -13 5 -19 -4 -17 -25 1 -4 -12 -5 -29
-4 -24 2 -27 0 -18 -11 8 -10 8 -14 0 -15 -20 -3 -26 -4 -39 -13 -16 -10 -34
2 -120 74 -37 32 -172 125 -206 142 -117 60 -226 65 -325 17 -54 -26 -94 -61
-221 -188 -85 -86 -182 -190 -215 -231 -33 -41 -68 -84 -78 -95 -36 -39 -109
-165 -123 -211 -20 -68 -18 -150 6 -199 31 -64 117 -153 243 -250 l113 -88
-15 -33 c-8 -18 -18 -31 -23 -28 -4 3 -5 -3 -1 -12 4 -12 3 -15 -5 -10 -8 5
-10 1 -5 -10 4 -10 0 -20 -11 -26 -9 -5 -14 -13 -11 -19 4 -5 -2 -9 -12 -9
-15 0 -16 -2 -3 -10 12 -8 12 -10 -3 -16 -9 -3 -14 -10 -11 -15 3 -6 0 -16 -6
-24 -6 -8 -9 -19 -5 -25 4 -6 1 -9 -7 -8 -8 2 -13 -6 -12 -24 1 -18 -3 -25
-12 -21 -9 3 -12 -2 -9 -16 2 -12 -1 -21 -7 -21 -5 0 -8 -6 -5 -13 6 -15 -18
-39 -29 -29 -5 4 -2 -1 5 -10 9 -12 9 -18 3 -18 -6 0 -9 -6 -6 -14 3 -8 2 -16
-3 -19 -4 -3 -82 -8 -173 -11 -364 -14 -372 -16 -403 -107 -40 -119 -52 -236
-51 -519 0 -302 10 -393 63 -545 34 -101 71 -158 119 -188 45 -29 179 -74 245
-82 26 -4 45 -10 42 -15 -3 -5 -1 -12 5 -15 8 -5 7 -11 -1 -21 -8 -10 -8 -14
0 -14 6 0 11 -11 11 -25 0 -14 6 -25 13 -25 8 0 7 -4 -3 -10 -10 -6 -11 -10
-2 -10 6 0 12 -5 12 -11 0 -5 -6 -7 -12 -3 -7 4 -4 -3 6 -15 22 -25 31 -55 13
-44 -7 4 -6 -1 2 -10 7 -9 10 -24 7 -33 -5 -13 -3 -14 7 -6 10 8 13 6 13 -9 0
-10 -4 -19 -9 -19 -4 0 -6 -4 -2 -10 3 -5 13 -7 23 -4 10 4 13 3 6 -3 -12 -9
-14 -54 -2 -47 7 5 10 -4 7 -22 0 -4 4 -10 10 -13 7 -5 -20 -56 -70 -137 -45
-71 -98 -160 -118 -199 -33 -64 -36 -77 -36 -150 1 -70 4 -86 30 -130 16 -27
83 -104 150 -171 103 -103 147 -138 310 -246 236 -156 384 -244 435 -259 70
-21 168 23 275 124 31 29 42 34 60 27 13 -5 26 -6 31 -2 4 4 4 1 0 -5 -4 -7
-2 -13 4 -13 6 0 8 -5 4 -12 -5 -9 -2 -9 9 1 11 9 17 10 17 2 0 -6 11 -11 25
-11 15 0 25 -6 25 -14 0 -9 9 -13 25 -12 13 2 33 -5 44 -16 12 -10 23 -18 26
-18 22 1 25 -1 19 -11 -5 -8 -1 -8 14 0 15 8 23 7 36 -8 9 -10 28 -19 41 -20
47 -3 55 -4 55 -12 0 -4 7 -10 16 -13 8 -3 12 -2 9 4 -3 6 -1 10 5 10 6 0 13
-7 17 -16 5 -13 7 -13 14 -2 7 10 9 10 9 -2 0 -13 1 -13 10 0 6 10 10 11 10 3
0 -7 11 -13 25 -13 14 0 25 -6 25 -12 0 -9 4 -8 10 2 6 10 10 11 10 3 0 -8 13
-13 29 -13 17 0 33 -5 36 -10 5 -8 11 -8 20 0 9 7 16 6 24 -4 7 -8 23 -13 36
-11 14 1 25 -2 25 -7 0 -6 7 -7 15 -4 20 7 35 -31 35 -88 0 -62 26 -128 66
-167 l35 -34 712 0 c551 0 720 3 748 13 78 27 145 130 156 238 5 49 8 55 25
51 15 -4 18 -2 13 11 -5 13 -3 14 5 6 13 -13 50 -7 50 8 0 5 5 6 10 3 6 -4 18
-1 27 7 12 9 15 9 9 1 -5 -9 -2 -11 8 -7 9 3 16 11 16 16 0 6 8 4 17 -3 10 -8
14 -9 10 -2 -4 6 -3 14 3 18 5 3 10 1 10 -5 0 -6 5 -8 10 -5 6 4 8 10 5 15 -3
4 3 7 12 5 10 -1 23 2 30 7 7 5 16 7 22 4 5 -3 11 -1 13 6 4 11 33 20 74 22
14 1 20 6 16 15 -3 9 -1 12 6 7 6 -3 13 -2 17 4 4 6 11 8 16 5 5 -4 12 1 15 9
5 12 11 13 25 6 15 -9 17 -8 12 6 -4 12 -3 15 5 10 7 -4 12 -2 12 6 0 9 3 9
10 -2 7 -11 10 -11 10 -2 0 7 15 19 34 27 19 8 38 20 41 26 4 5 13 8 20 5 7
-2 16 2 19 9 4 11 21 4 73 -27 96 -58 154 -78 247 -85 96 -6 201 13 278 52 94
47 298 211 402 323 56 61 144 186 177 250 44 88 50 123 33 190 -14 53 -121
281 -184 391 -17 30 -29 59 -26 66 2 7 -1 18 -7 24 -8 8 -8 11 1 11 7 0 9 7 5
17 -5 13 -2 15 12 10 14 -6 15 -5 7 6 -8 10 -7 20 3 41 8 15 12 32 9 37 -3 5
0 9 6 9 6 0 8 5 5 10 -4 6 -1 17 5 25 10 12 10 15 -1 15 -10 1 -9 5 4 14 14
11 15 15 5 19 -8 3 -6 6 6 6 15 1 16 4 6 16 -15 19 -13 19 108 40 163 27 203
61 271 233 24 59 47 116 51 127 19 46 51 156 71 245 19 83 22 134 26 390 3
276 2 299 -17 354 -25 74 -60 121 -110 146 -53 27 -178 55 -340 76 -140 18
-163 25 -153 51 3 8 0 19 -7 23 -7 4 -12 19 -12 34 0 14 -7 31 -14 37 -8 6
-11 15 -8 20 3 5 0 9 -7 9 -7 0 -9 3 -6 7 4 3 -1 12 -11 20 -16 12 -15 13 3 7
17 -6 17 -4 -3 11 -17 12 -21 23 -16 38 3 12 3 19 -1 15 -10 -10 -33 15 -28
29 3 7 0 13 -7 13 -6 0 -8 5 -5 10 3 6 1 10 -5 10 -6 0 -8 5 -5 10 3 6 -1 13
-9 16 -9 3 -16 12 -16 20 0 8 -6 14 -12 14 -9 0 -8 4 2 10 10 6 11 10 3 10 -7
0 -13 7 -13 16 0 9 -5 12 -12 8 -8 -5 -9 -2 -5 10 4 9 3 15 -1 12 -4 -3 -14 4
-21 16 -10 16 -10 19 1 12 10 -6 11 -5 1 7 -10 13 -4 27 36 80 60 81 166 294
187 378 18 73 14 152 -9 198 -9 17 -40 52 -69 78 -47 42 -247 181 -353 245
-67 40 -305 159 -362 180 -72 27 -153 26 -223 -3 -63 -26 -85 -43 -183 -144
-44 -46 -73 -69 -78 -62 -4 7 -12 8 -19 4 -9 -5 -11 -4 -6 3 4 7 2 12 -4 12
-6 0 -9 4 -6 9 4 5 -3 7 -14 4 -11 -3 -20 -1 -20 5 0 6 -9 9 -21 7 -14 -3 -19
0 -16 9 4 9 -1 13 -11 12 -9 -2 -23 4 -30 13 -11 14 -11 14 -6 -4 5 -19 5 -19
-9 -2 -9 10 -21 15 -31 11 -9 -4 -16 -3 -15 2 4 21 -2 25 -18 13 -11 -10 -14
-10 -9 -1 6 11 0 14 -20 11 -4 0 -11 5 -15 13 -7 10 -9 10 -9 0 0 -7 -5 -10
-10 -7 -6 4 -8 10 -5 15 3 4 -6 7 -18 6 l-24 -3 -7 183 c-7 193 -14 229 -53
282 -45 61 -161 93 -518 147 -22 3 -137 17 -255 30 -249 29 -434 37 -575 25z
m759 -935 c377 -56 721 -205 1016 -440 368 -291 632 -711 743 -1180 113 -473
49 -1006 -170 -1430 -47 -92 -86 -160 -104 -184 -11 -13 -19 -30 -19 -37 0 -8
-4 -14 -10 -14 -5 0 -16 -13 -24 -29 -8 -15 -24 -39 -35 -52 -11 -13 -46 -55
-78 -94 -55 -67 -192 -207 -244 -250 -256 -211 -535 -358 -823 -435 -84 -22
-267 -56 -351 -65 -74 -8 -307 -8 -395 -1 -381 34 -773 185 -1082 417 -259
194 -467 443 -616 736 -84 165 -169 405 -188 533 -3 19 -8 44 -11 54 -3 11 -7
34 -9 50 -2 17 -8 65 -13 106 -10 73 -7 420 3 470 2 14 7 43 11 64 3 21 7 48
10 60 3 12 7 32 9 46 12 74 67 256 108 360 78 196 196 400 323 556 60 75 252
264 325 320 348 270 740 423 1175 458 91 7 347 -4 449 -19z"/>
<path d="M10380 5443 c-719 -40 -1342 -430 -1686 -1058 -175 -318 -255 -661
-240 -1025 3 -85 8 -166 10 -180 2 -14 7 -46 10 -70 8 -58 13 -82 31 -155 9
-33 17 -69 20 -79 23 -98 112 -313 179 -433 40 -73 149 -240 165 -253 3 -3 24
-27 45 -54 210 -261 537 -491 868 -610 129 -47 227 -72 374 -96 252 -41 499
-33 763 26 496 112 936 412 1225 837 25 38 46 71 46 74 0 4 6 14 14 22 22 25
79 137 124 244 74 173 130 381 150 556 10 89 9 389 -1 476 -97 821 -700 1509
-1503 1715 -181 46 -425 72 -594 63z m255 -1047 c182 -41 323 -106 443 -204
110 -88 185 -180 249 -302 46 -88 100 -251 109 -330 12 -105 7 -283 -10 -331
-3 -8 -7 -25 -10 -39 -2 -14 -14 -54 -26 -90 -84 -243 -271 -451 -504 -562
-65 -32 -165 -66 -211 -74 -16 -2 -55 -8 -85 -13 -59 -10 -229 -7 -295 5 -22
3 -48 7 -57 7 -10 1 -18 5 -18 9 0 4 -3 7 -7 6 -12 -3 -121 33 -162 54 -19 10
-41 18 -47 18 -7 0 -14 4 -16 8 -1 4 -21 19 -43 32 -51 31 -112 77 -148 113
-15 15 -32 27 -37 27 -6 0 -10 4 -10 8 0 5 -10 20 -21 33 -95 108 -199 299
-215 398 -3 14 -7 33 -10 41 -28 76 -25 335 5 450 49 187 131 332 262 461 134
133 303 227 475 263 36 8 67 16 70 18 7 7 285 2 319 -6z"/>
<path d="M9116 1087 c3 -10 9 -15 12 -12 3 3 0 11 -7 18 -10 9 -11 8 -5 -6z"/>
</g>
</svg>
